<?xml version="1.0" encoding="UTF-8"?>
<!DOCTYPE svg PUBLIC "-//W3C//DTD SVG 1.1//EN" "http://www.w3.org/Graphics/SVG/1.1/DTD/svg11.dtd">
<svg xmlns="http://www.w3.org/2000/svg" version="1.1" width="1125px" height="142px" style="shape-rendering:geometricPrecision; text-rendering:geometricPrecision; image-rendering:optimizeQuality; fill-rule:evenodd; clip-rule:evenodd" xmlns:xlink="http://www.w3.org/1999/xlink">
<g><path style="opacity:0.733" fill="#7a7971" d="M 640.5,10.5 C 640.5,12.1667 640.5,13.8333 640.5,15.5C 633.463,14.1426 626.463,14.476 619.5,16.5C 619.5,14.8333 619.5,13.1667 619.5,11.5C 626.463,9.47595 633.463,9.14262 640.5,10.5 Z"/></g>
<g><path style="opacity:0.761" fill="#73726c" d="M 640.5,10.5 C 655.678,11.8586 661.178,19.8586 657,34.5C 653.051,41.9475 647.551,47.9475 640.5,52.5C 640.5,50.5 640.5,48.5 640.5,46.5C 647.703,41.931 652.036,35.431 653.5,27C 652.55,19.5025 648.217,15.6691 640.5,15.5C 640.5,13.8333 640.5,12.1667 640.5,10.5 Z"/></g>
<g><path style="opacity:0.726" fill="#828077" d="M 619.5,11.5 C 619.5,13.1667 619.5,14.8333 619.5,16.5C 611.132,18.8517 603.466,22.5183 596.5,27.5C 596.5,25.8333 596.5,24.1667 596.5,22.5C 603.458,17.5223 611.125,13.8557 619.5,11.5 Z"/></g>
<g><path style="opacity:0.681" fill="#89877c" d="M 596.5,22.5 C 596.5,24.1667 596.5,25.8333 596.5,27.5C 592.881,30.4518 589.548,33.7852 586.5,37.5C 588.638,44.6642 589.805,51.9975 590,59.5C 591.754,61.25 593.921,61.9167 596.5,61.5C 596.5,63.1667 596.5,64.8333 596.5,66.5C 594.5,66.5 592.5,66.5 590.5,66.5C 590.364,81.687 586.864,96.0203 580,109.5C 573.526,119.177 568.359,118.511 564.5,107.5C 564.187,103.958 564.521,100.625 565.5,97.5C 566.215,103.151 568.382,108.151 572,112.5C 578.641,105.885 582.641,97.8852 584,88.5C 586.157,81.2453 586.657,73.912 585.5,66.5C 582.689,65.9204 580.023,65.2537 577.5,64.5C 577.5,62.8333 577.5,61.1667 577.5,59.5C 580.43,60.299 583.43,60.6323 586.5,60.5C 586.715,53.3662 585.882,46.3662 584,39.5C 582.054,42.4202 579.887,45.0869 577.5,47.5C 577.784,45.5853 577.451,43.9187 576.5,42.5C 578.243,39.2496 580.577,36.4162 583.5,34C 582.453,31.0212 581.119,28.1879 579.5,25.5C 576.561,27.7582 575.894,30.5915 577.5,34C 577.026,35.6075 576.359,35.7742 575.5,34.5C 573.247,28.1634 575.247,24.3301 581.5,23C 582.928,25.7832 584.262,28.6165 585.5,31.5C 588.895,28.0985 592.562,25.0985 596.5,22.5 Z"/></g>
<g><path style="opacity:0.568" fill="#b9b6a0" d="M 449.5,41.5 C 448.549,42.9187 448.216,44.5853 448.5,46.5C 440.582,28.7415 428.749,14.0748 413,2.5C 411.232,5.21809 411.066,8.05143 412.5,11C 411.833,11.6667 411.167,11.6667 410.5,11C 409.39,8.26278 409.223,5.42945 410,2.5C 411.133,0.788847 412.633,0.288847 414.5,1C 429.564,11.5643 441.231,25.0643 449.5,41.5 Z"/></g>
<g><path style="opacity:0.756" fill="#8f8c80" d="M 576.5,42.5 C 577.451,43.9187 577.784,45.5853 577.5,47.5C 575.892,50.7997 574.225,54.1331 572.5,57.5C 573.668,59.2174 575.335,59.8841 577.5,59.5C 577.5,61.1667 577.5,62.8333 577.5,64.5C 574.653,64.2176 571.987,64.2176 569.5,64.5C 567.232,68.9063 565.899,73.5729 565.5,78.5C 564.515,74.3656 564.182,70.0323 564.5,65.5C 564.414,64.5041 564.748,63.6708 565.5,63C 556.716,60.475 548.049,57.975 539.5,55.5C 539.5,53.8333 539.5,52.1667 539.5,50.5C 548.272,52.902 557.106,55.2353 566,57.5C 566.772,57.3552 567.439,57.0219 568,56.5C 570.106,51.2697 572.939,46.603 576.5,42.5 Z"/></g>
<g><path style="opacity:0.649" fill="#adaa96" d="M 488.5,46.5 C 488.5,48.5 488.5,50.5 488.5,52.5C 484.481,52.6458 480.481,52.9791 476.5,53.5C 475.885,59.189 475.052,64.8557 474,70.5C 473.767,72.7801 472.934,74.7801 471.5,76.5C 471.144,69.1034 471.144,61.77 471.5,54.5C 467.772,55.377 464.105,56.377 460.5,57.5C 460.5,55.8333 460.5,54.1667 460.5,52.5C 464.59,50.8919 468.923,49.7252 473.5,49C 474.218,47.0126 475.218,45.1792 476.5,43.5C 477.747,45.0064 477.747,46.5064 476.5,48C 480.551,47.9937 484.551,47.4937 488.5,46.5 Z"/></g>
<g><path style="opacity:0.611" fill="#7c7b72" d="M 688.5,45.5 C 689.822,45.33 690.989,45.6634 692,46.5C 693.744,52.4557 693.911,58.4557 692.5,64.5C 691.699,66.0418 691.366,67.7085 691.5,69.5C 691.167,70.1667 690.833,70.8333 690.5,71.5C 690.5,72.1667 690.167,72.5 689.5,72.5C 689.802,69.9407 689.468,67.6074 688.5,65.5C 689.762,59.7032 689.762,54.0366 688.5,48.5C 688.5,47.5 688.5,46.5 688.5,45.5 Z"/></g>
<g><path style="opacity:0.694" fill="#b5b29c" d="M 449.5,41.5 C 451.488,45.6286 452.988,49.9619 454,54.5C 456.007,53.3313 458.173,52.6646 460.5,52.5C 460.5,54.1667 460.5,55.8333 460.5,57.5C 458.883,58.038 457.216,58.3713 455.5,58.5C 460.302,81.051 457.136,102.384 446,122.5C 444,125.666 441.5,128.332 438.5,130.5C 438.5,128.833 438.5,127.167 438.5,125.5C 452.76,105.595 456.76,83.9281 450.5,60.5C 442.478,64.1784 434.478,67.8451 426.5,71.5C 426.5,69.8333 426.5,68.1667 426.5,66.5C 433.745,62.0451 441.411,58.3785 449.5,55.5C 449.833,55 450.167,54.5 450.5,54C 449.521,51.5667 448.855,49.0667 448.5,46.5C 448.216,44.5853 448.549,42.9187 449.5,41.5 Z"/></g>
<g><path style="opacity:0.757" fill="#a29f8e" d="M 688.5,45.5 C 688.5,46.5 688.5,47.5 688.5,48.5C 686.5,49.8333 684.833,51.5 683.5,53.5C 683.5,52.1667 683.5,50.8333 683.5,49.5C 684.579,47.457 686.246,46.1237 688.5,45.5 Z"/></g>
<g><path style="opacity:0.771" fill="#7a7971" d="M 640.5,46.5 C 640.5,48.5 640.5,50.5 640.5,52.5C 633.441,57.1951 625.775,60.5285 617.5,62.5C 618.968,61.2209 619.635,59.5542 619.5,57.5C 626.876,54.6447 633.876,50.978 640.5,46.5 Z"/></g>
<g><path style="opacity:0.557" fill="#9f9c8c" d="M 539.5,50.5 C 539.5,52.1667 539.5,53.8333 539.5,55.5C 532.833,54.5 526.167,53.5 519.5,52.5C 518.043,58.2075 516.376,63.8742 514.5,69.5C 514.667,70.1667 514.833,70.8333 515,71.5C 518.901,68.2607 521.401,68.9274 522.5,73.5C 523.5,73.5 524.5,73.5 525.5,73.5C 525.792,69.996 527.792,68.3293 531.5,68.5C 532.994,68.7092 534.161,69.3759 535,70.5C 537.861,66.2767 539.361,66.6101 539.5,71.5C 539.5,72.5 539.5,73.5 539.5,74.5C 537.795,77.2869 536.628,76.9535 536,73.5C 532.842,76.0796 529.508,78.4129 526,80.5C 525.837,78.6133 526.671,77.1133 528.5,76C 526.189,76.1554 523.856,76.1554 521.5,76C 520.663,74.9887 520.33,73.8221 520.5,72.5C 517.121,72.8533 514.121,74.1866 511.5,76.5C 510.815,74.2192 510.649,71.8859 511,69.5C 509.871,71.1412 508.371,72.1412 506.5,72.5C 506.5,71.8333 506.5,71.1667 506.5,70.5C 506.5,70.1667 506.5,69.8333 506.5,69.5C 507.833,69.1667 507.833,68.8333 506.5,68.5C 506.5,67.5 506.5,66.5 506.5,65.5C 508.773,66.7353 510.606,66.4019 512,64.5C 514.234,60.3743 515.4,56.2077 515.5,52C 506.422,51.1965 497.422,51.3631 488.5,52.5C 488.5,50.5 488.5,48.5 488.5,46.5C 498.5,46.5 508.5,46.5 518.5,46.5C 518.238,45.0222 518.571,43.6888 519.5,42.5C 520.452,44.0453 520.785,45.712 520.5,47.5C 526.896,48.1127 533.23,49.1127 539.5,50.5 Z"/></g>
<g><path style="opacity:0.532" fill="#89877c" d="M 666.5,62.5 C 666.5,63.1667 666.5,63.8333 666.5,64.5C 665.127,64.3433 663.793,64.51 662.5,65C 660.035,68.2358 657.035,69.7358 653.5,69.5C 653.5,68.5 653.5,67.5 653.5,66.5C 654.117,66.3893 654.617,66.056 655,65.5C 655.333,62.8333 655.667,60.1667 656,57.5C 657.018,59.8977 658.185,62.231 659.5,64.5C 661.569,62.267 663.903,61.6004 666.5,62.5 Z"/></g>
<g><path style="opacity:0.127" fill="#a29f8f" d="M 675.5,57.5 C 677.048,57.8212 677.715,58.8212 677.5,60.5C 674.752,60.5983 674.086,59.5983 675.5,57.5 Z"/></g>
<g><path style="opacity:0.764" fill="#818076" d="M 619.5,57.5 C 619.635,59.5542 618.968,61.2209 617.5,62.5C 610.804,64.7856 603.804,66.1189 596.5,66.5C 596.5,64.8333 596.5,63.1667 596.5,61.5C 604.247,60.6841 611.914,59.3507 619.5,57.5 Z"/></g>
<g><path style="opacity:0.678" fill="#a8a593" d="M 641.5,67.5 C 641.5,68.1667 641.5,68.8333 641.5,69.5C 639.017,70.339 637.184,69.339 636,66.5C 630.739,70.1081 625.239,70.4415 619.5,67.5C 619.5,66.8333 619.5,66.1667 619.5,65.5C 627.275,68.8534 633.775,67.1867 639,60.5C 639.5,60.6667 640,60.8333 640.5,61C 637.503,63.9662 637.836,66.1328 641.5,67.5 Z"/></g>
<g><path style="opacity:0.631" fill="#c0bca5" d="M 683.5,49.5 C 683.5,50.8333 683.5,52.1667 683.5,53.5C 682.417,57.919 681.084,62.2524 679.5,66.5C 678.656,62.5197 678.823,58.5197 680,54.5C 680.697,52.4156 681.864,50.7489 683.5,49.5 Z"/></g>
<g><path style="opacity:0.394" fill="#78776f" d="M 666.5,62.5 C 669.542,65.849 672.875,66.1824 676.5,63.5C 676.833,63.8333 677.167,64.1667 677.5,64.5C 673.798,68.4884 670.131,68.4884 666.5,64.5C 666.5,63.8333 666.5,63.1667 666.5,62.5 Z"/></g>
<g><path style="opacity:0.458" fill="#bdb9a2" d="M 697.5,63.5 C 699.443,61.5517 701.11,62.2184 702.5,65.5C 702.5,66.1667 702.5,66.8333 702.5,67.5C 699.479,65.9972 697.145,66.8306 695.5,70C 694.072,70.5791 692.738,70.4124 691.5,69.5C 691.366,67.7085 691.699,66.0418 692.5,64.5C 693.391,63.7387 694.058,62.7387 694.5,61.5C 695.325,60.6143 696.325,60.281 697.5,60.5C 697.5,61.5 697.5,62.5 697.5,63.5 Z M 697.5,63.5 C 697.315,65.1958 696.481,66.5291 695,67.5C 694.558,65.3858 695.391,64.0524 697.5,63.5 Z"/></g>
<g><path style="opacity:0.592" fill="#a6a391" d="M 506.5,65.5 C 506.5,66.5 506.5,67.5 506.5,68.5C 506.5,68.8333 506.5,69.1667 506.5,69.5C 503.833,69.8333 503.833,70.1667 506.5,70.5C 506.5,71.1667 506.5,71.8333 506.5,72.5C 503.648,75.3101 500.315,75.9768 496.5,74.5C 498.672,73.7952 500.672,72.7952 502.5,71.5C 502,71.1667 501.5,70.8333 501,70.5C 494.699,72.5011 488.366,73.1678 482,72.5C 473.212,77.0929 472.379,75.9262 479.5,69C 480.793,68.51 482.127,68.3433 483.5,68.5C 483.5,69.5 483.5,70.5 483.5,71.5C 488.861,70.7173 494.195,69.7173 499.5,68.5C 501.204,66.1507 503.537,65.1507 506.5,65.5 Z"/></g>
<g><path style="opacity:0.692" fill="#918f81" d="M 564.5,65.5 C 564.182,70.0323 564.515,74.3656 565.5,78.5C 564.167,84.8333 564.167,91.1667 565.5,97.5C 564.521,100.625 564.187,103.958 564.5,107.5C 562.539,104.551 561.373,101.218 561,97.5C 560.201,90.1166 560.368,82.7833 561.5,75.5C 556.646,73.8475 551.646,73.1808 546.5,73.5C 546.762,72.0222 546.429,70.6888 545.5,69.5C 543.481,71.1897 541.481,72.8564 539.5,74.5C 539.5,73.5 539.5,72.5 539.5,71.5C 540.962,70.5423 542.295,69.3756 543.5,68C 545.134,67.5065 546.801,67.3398 548.5,67.5C 548.5,68.8333 548.5,70.1667 548.5,71.5C 553.214,71.3531 557.881,71.6864 562.5,72.5C 562.41,69.8478 563.076,67.5145 564.5,65.5 Z"/></g>
<g><path style="opacity:0.488" fill="#a19f8e" d="M 702.5,65.5 C 704.167,65.5 705.833,65.5 707.5,65.5C 707.5,66.5 707.5,67.5 707.5,68.5C 705.585,68.7845 703.919,68.4511 702.5,67.5C 702.5,66.8333 702.5,66.1667 702.5,65.5 Z"/></g>
<g><path style="opacity:0.588" fill="#8e8c7f" d="M 707.5,65.5 C 710.167,65.5 712.833,65.5 715.5,65.5C 715.5,66.1667 715.5,66.8333 715.5,67.5C 712.873,68.0916 710.206,68.4249 707.5,68.5C 707.5,67.5 707.5,66.5 707.5,65.5 Z"/></g>
<g><path style="opacity:0.359" fill="#7a7870" d="M 715.5,67.5 C 715.5,66.8333 715.5,66.1667 715.5,65.5C 717.792,65.7564 719.959,65.4231 722,64.5C 722.5,65 723,65.5 723.5,66C 720.986,67.2525 718.32,67.7525 715.5,67.5 Z"/></g>
<g><path style="opacity:0.493" fill="#949284" d="M 653.5,66.5 C 653.5,67.5 653.5,68.5 653.5,69.5C 651.077,69.5764 649.244,68.5764 648,66.5C 645.721,67.3914 643.554,68.3914 641.5,69.5C 641.5,68.8333 641.5,68.1667 641.5,67.5C 645.234,62.6785 649.234,62.3451 653.5,66.5 Z"/></g>
<g><path style="opacity:0.418" fill="#c2bfa7" d="M 619.5,65.5 C 619.5,66.1667 619.5,66.8333 619.5,67.5C 616.74,70.2583 613.407,71.5916 609.5,71.5C 609.164,66.9999 611.164,65.1666 615.5,66C 614.944,66.3826 614.611,66.8826 614.5,67.5C 616.024,66.8262 617.358,65.8262 618.5,64.5C 619.107,64.6236 619.44,64.9569 619.5,65.5 Z M 614.5,67.5 C 613.998,69.0847 612.998,69.5847 611.5,69C 612.244,67.9614 613.244,67.4614 614.5,67.5 Z"/></g>
<g><path style="opacity:0.237" fill="#71706a" d="M 687.5,73.5 C 687.768,75.099 687.434,76.4324 686.5,77.5C 682.5,77.5 678.5,77.5 674.5,77.5C 674.5,76.1667 674.5,74.8333 674.5,73.5C 677.651,74.0531 680.651,73.3864 683.5,71.5C 683.329,74.7973 683.995,75.1306 685.5,72.5C 686.183,72.8627 686.85,73.1961 687.5,73.5 Z"/></g>
<g><path style="opacity:0.46" fill="#8c8a7e" d="M 688.5,65.5 C 689.468,67.6074 689.802,69.9407 689.5,72.5C 689.5,74.1667 689.5,75.8333 689.5,77.5C 687.971,83.996 686.971,83.996 686.5,77.5C 687.434,76.4324 687.768,75.099 687.5,73.5C 688.092,70.8728 688.425,68.2062 688.5,65.5 Z"/></g>
<g><path style="opacity:0.308" fill="#71706a" d="M 690.5,71.5 C 691.94,72.3629 693.274,72.3629 694.5,71.5C 695.548,72.3829 696.715,73.0496 698,73.5C 706.781,72.3858 715.448,72.3858 724,73.5C 724.308,72.6919 724.808,72.0253 725.5,71.5C 727.544,73.3555 729.711,74.0222 732,73.5C 732.712,75.6953 732.045,77.3619 730,78.5C 728.347,78.1802 727.347,77.1802 727,75.5C 723.333,79.5 719.667,79.5 716,75.5C 713.939,78.7748 711.606,79.1081 709,76.5C 705.61,77.1346 702.277,77.4679 699,77.5C 697.674,77.2451 696.674,76.5784 696,75.5C 694.983,78.028 693.816,78.028 692.5,75.5C 691.735,76.6119 690.735,77.2786 689.5,77.5C 689.5,75.8333 689.5,74.1667 689.5,72.5C 690.167,72.5 690.5,72.1667 690.5,71.5 Z"/></g>
<g><path style="opacity:0.406" fill="#c0bda5" d="M 642.5,74.5 C 642.5,75.5 642.5,76.5 642.5,77.5C 640.876,77.6399 639.71,76.9733 639,75.5C 638,78.1667 637,78.1667 636,75.5C 632.847,79.7234 630.347,79.39 628.5,74.5C 630.451,69.9388 632.951,69.6055 636,73.5C 637,70.8333 638,70.8333 639,73.5C 639.308,72.6919 639.808,72.0253 640.5,71.5C 641.176,72.6016 641.842,73.6016 642.5,74.5 Z"/></g>
<g><path style="opacity:0.395" fill="#817f76" d="M 674.5,73.5 C 674.5,74.8333 674.5,76.1667 674.5,77.5C 671.534,77.8897 668.868,77.223 666.5,75.5C 665.833,76.1667 665.167,76.8333 664.5,77.5C 663.534,75.604 663.201,73.604 663.5,71.5C 667.311,72.6949 670.978,73.3615 674.5,73.5 Z"/></g>
<g><path style="opacity:0.32" fill="#adaa97" d="M 651.5,73.5 C 650.662,73.8417 650.328,74.5084 650.5,75.5C 648.365,77.369 645.698,78.0356 642.5,77.5C 642.5,76.5 642.5,75.5 642.5,74.5C 642.911,72.228 644.078,71.8947 646,73.5C 647.285,73.0496 648.452,72.3829 649.5,71.5C 650.522,71.8555 651.189,72.5222 651.5,73.5 Z"/></g>
<g><path style="opacity:0.031" fill="#9a9888" d="M 650.5,75.5 C 650.328,74.5084 650.662,73.8417 651.5,73.5C 654.013,73.0263 656.513,72.693 659,72.5C 660.892,73.6174 661.725,75.2841 661.5,77.5C 657.498,77.9643 653.831,77.2976 650.5,75.5 Z"/></g>
<g><path style="opacity:0.733" fill="#c2bea6" d="M 426.5,66.5 C 426.5,68.1667 426.5,69.8333 426.5,71.5C 415.919,78.0794 406.919,86.4128 399.5,96.5C 399.5,94.1667 399.5,91.8333 399.5,89.5C 402.251,85.243 405.584,81.4097 409.5,78C 414.85,73.6615 420.516,69.8282 426.5,66.5 Z"/></g>
<g><path style="opacity:0.747" fill="#c6c2a9" d="M 399.5,89.5 C 399.5,91.8333 399.5,94.1667 399.5,96.5C 393.689,108.321 394.522,119.654 402,130.5C 404.961,133.724 408.461,136.058 412.5,137.5C 412.5,138.833 412.5,140.167 412.5,141.5C 411.167,141.5 409.833,141.5 408.5,141.5C 390.622,129.311 386.455,113.311 396,93.5C 396.949,91.9069 398.115,90.5736 399.5,89.5 Z"/></g>
<g><path style="opacity:0.719" fill="#bdb9a2" d="M 438.5,125.5 C 438.5,127.167 438.5,128.833 438.5,130.5C 433.828,135.166 428.495,138.833 422.5,141.5C 419.167,141.5 415.833,141.5 412.5,141.5C 412.5,140.167 412.5,138.833 412.5,137.5C 422.949,137.274 431.616,133.274 438.5,125.5 Z"/></g>
</svg>
